PathFileType	4	(X/Y/Z)	D:\TRACE\spot_10-12-23\spot_body_motion_2_3-v60.trc
DataRate	CameraRate	NumFrames	NumMarkers	Units	OrigDataRate	OrigDataStartFrame	OrigNumFrames
100.00	100.00	      24	9	mm	100.00	4376	      7000
Frame#	Time	front left toe			Front right toe			aft left toe			aft right toe			Arm			FL body			FR body			AL Body			AR Body			
		X1	Y1	Z1	X2	Y2	Z2	X3	Y3	Z3	X4	Y4	Z4	X5	Y5	Z5	X6	Y6	Z6	X7	Y7	Z7	X8	Y8	Z8	X9	Y9	Z9	

4376	43.750	-135.95006	24.44589	-0.67071	340.30112	18.75934	105.37951	-209.70422	20.86738	448.18011	273.69867	14.91242	545.92163	185.17392	819.46796	-118.86380	100.84940	556.03967	-130.40408	249.70605	561.87787	-98.27779	-90.38799	523.85297	732.21466	55.83652	523.21893	766.19434	
4377	43.760	-136.90283	24.46496	-1.10745	339.95520	19.34650	105.17861	-211.00713	22.03903	447.67398	272.68851	15.97673	545.39264	184.15326	819.96179	-119.78509	99.67987	556.45862	-131.10002	248.78078	562.21167	-98.71880	-91.46181	524.98114	731.48553	55.05695	524.08252	765.57562	
4378	43.770	-137.79269	24.40837	-1.40381	338.13745	19.19794	104.66035	-212.01530	22.88729	447.17664	271.53387	17.26108	545.32001	182.94926	820.33221	-120.64493	98.92130	556.59277	-131.66991	247.61014	562.43683	-99.57973	-92.17178	525.76434	730.80878	53.83335	525.03125	765.10785	
4379	43.780	-139.02158	24.27435	-1.85373	337.17239	19.09937	104.75137	-212.17386	23.14991	447.51074	271.04300	18.16537	544.86731	182.17221	820.48309	-121.36005	97.94828	556.96930	-132.26144	246.68410	562.92035	-100.22937	-93.50996	526.72498	730.18182	52.80186	526.16119	764.16534	
4380	43.790	-140.22789	24.35662	-2.54062	336.92923	20.04868	104.31158	-214.12601	24.40323	447.02759	269.56116	19.05510	544.59863	180.95016	820.86438	-122.26347	96.77000	557.33704	-133.06168	245.80150	563.31403	-100.72253	-94.53659	527.69336	729.71106	51.72160	527.17688	763.69238	
4381	43.800	-141.09528	24.29240	-2.51688	-30.56172	506.46478	474.25455	-214.97081	25.53508	446.18707	268.60181	20.45754	544.57550	179.83810	821.25610	-123.19467	96.00855	557.50433	-133.58949	245.23793	563.23798	-101.13486	-95.52239	528.69257	728.99597	51.02288	528.17413	762.83899	
4382	43.810	-141.84062	24.19036	-2.98150	334.35788	19.95647	103.68555	-215.11896	25.92772	446.39847	268.41919	21.15532	544.26569	179.07661	821.57843	-124.14826	94.65109	558.01099	-134.34299	243.69133	563.87146	-102.12470	-96.65965	529.94824	728.45294	49.51492	529.27338	762.20026	
4383	43.820	-142.92207	24.06845	-3.21791	333.40771	19.94617	103.15195	-217.28841	27.54835	445.78088	266.71808	22.42937	543.47943	177.60623	821.91882	-124.87763	93.85223	558.12091	-135.06248	243.18275	564.08118	-102.56680	-97.78477	530.85278	727.72394	48.91185	530.48975	761.82977	
4384	43.830	-143.87808	23.88070	-3.45739	332.36359	20.04942	102.87080	-218.09770	28.30512	445.27161	265.77567	23.83404	543.41077	176.68298	822.26184	-125.84351	92.96269	558.58234	-135.74550	241.83961	564.65417	-103.25232	-98.95417	531.84088	727.80804	47.48653	531.26965	761.00610	
4385	43.840	-145.35739	24.16119	-3.93178	331.33902	20.09726	102.42822	-218.98264	29.01582	445.11118	264.53397	24.59386	543.14862	175.84126	822.55292	-126.55437	91.80716	558.93292	-136.22185	240.53036	565.07538	-104.14213	-99.79767	532.93091	727.16846	46.36670	532.38025	760.36548	
4386	43.850	-145.82808	23.86607	-4.36138	330.54752	20.14432	102.08780	-219.78474	29.98190	444.53076	263.98923	25.71118	542.66919	174.57350	822.97473	-127.36361	90.87560	559.30786	-137.26123	239.20320	566.16040	-105.37481	-100.82608	533.74170	725.75739	45.63957	533.52386	760.02014	
4387	43.860	-146.56606	23.71171	-4.63197	329.51886	20.34277	101.75726	-220.84886	30.74052	444.28271	263.11526	27.01958	542.65326	173.63043	823.53345	-128.29791	90.10032	559.58618	-137.51427	238.89627	565.96979	-105.09702	-101.97034	534.86725	725.22577	44.56928	534.64276	759.27429	
4388	43.870	-147.59375	23.60233	-5.07915	328.64557	20.52793	101.47739	-221.69174	31.51376	444.00500	261.98068	27.98309	542.22229	172.42786	823.82312	-129.20241	88.48977	560.15289	-138.33725	237.51892	566.39838	-106.02594	-103.04471	535.80133	724.44861	43.56984	535.66992	758.61646	
4389	43.880	-148.49475	23.57276	-5.36068	328.56784	20.91520	101.03483	-222.50407	32.48269	443.54129	261.50275	28.99134	541.86584	171.46216	824.19556	-129.92268	88.15987	560.18091	-138.92827	236.12247	567.32239	-107.26156	-104.13512	536.67371	724.00293	42.20433	536.70758	758.16046	
4390	43.890	-149.10962	23.18489	-5.64506	327.10767	20.69088	100.78033	-223.49135	33.29113	443.37576	260.47653	29.88398	541.50818	170.28888	824.53998	-130.97246	86.60375	560.65979	-139.65190	235.77591	567.23035	-107.19501	-105.10877	537.52362	723.24707	41.19322	537.74292	757.30933	
4391	43.900	-150.78162	23.61563	-6.15959	325.98431	20.84504	100.17631	-224.39786	34.09896	443.00574	259.77084	31.10941	541.80743	169.21782	825.06915	-131.87213	85.94691	560.95081	-140.13400	234.50545	567.67560	-107.89783	-106.19256	538.87732	722.49634	39.94970	538.78363	756.83356	
4392	43.910	-151.07649	23.05735	-6.63592	326.01178	21.54968	100.07461	-225.03203	35.06962	442.44986	258.43161	32.31853	540.76855	168.43544	825.13220	-132.55479	84.65477	561.24152	-140.94804	233.07855	568.41675	-109.22934	-107.06085	539.71771	722.00964	39.38979	539.88599	756.11969	
4393	43.920	-151.90291	22.79459	-6.82600	324.71274	21.46211	99.74845	-225.96451	35.68937	442.25555	257.92123	33.58120	540.19672	167.19553	825.55627	-133.50696	83.77726	561.58295	-141.33522	232.62270	568.22705	-109.23021	-108.39024	540.76367	721.36432	38.04391	540.75171	755.44702	
4394	43.930	-152.73700	22.68144	-6.95373	323.61221	21.41595	99.17449	-226.97955	36.50696	442.04517	256.95642	34.11672	539.94391	166.14821	825.72516	-134.27777	82.75581	561.81525	-141.83351	231.49095	568.68567	-109.66533	-108.99921	541.45624	721.03955	37.17036	541.74817	754.86487	
4395	43.940	-153.67468	22.67210	-7.47615	323.05203	21.50364	98.93099	-227.34039	37.24139	441.52902	255.98729	35.46579	539.86926	165.65944	826.04926	-134.75603	81.64442	562.10760	-142.61855	230.09976	569.33636	-110.91371	-110.27537	542.58704	720.32037	36.20416	542.76514	754.64587	
4396	43.950	-154.17482	22.72306	-7.68891	322.28564	21.75041	98.69440	-228.34734	38.23986	441.30859	255.56963	36.53469	539.53479	164.37177	826.15869	-135.56622	80.99747	562.23315	-142.82086	229.80312	568.92346	-110.70631	-111.12607	543.53510	720.22546	35.37681	543.79437	753.94507	
4397	43.960	-155.19856	22.87909	-7.85833	321.73080	21.86098	98.38032	-228.94995	39.00146	441.13831	255.06551	37.31493	539.21307	163.12767	826.57202	-136.35239	80.22480	562.40967	-143.21806	229.21005	569.16547	-110.84036	-111.77638	544.36835	720.00696	35.31847	544.72473	753.84326	
4398	43.970	-155.34418	22.34233	-8.27627	320.84088	21.86961	97.89008	-229.68332	39.70844	440.79745	254.23460	37.75539	538.74182	162.36914	826.74707	-137.06631	79.17031	562.64539	-143.79539	227.57632	570.30054	-111.14237	-112.91571	545.56696	719.44507	33.42985	545.91742	753.37903	
4399	43.980	-155.98654	22.28412	-8.71962	320.27557	21.88867	97.91334	-230.10266	40.47436	440.23108	253.81787	39.09395	539.07086	161.68704	826.69940	-137.46927	78.71722	562.59656	-143.96355	227.01561	570.32330	-111.49477	-113.36744	546.36041	718.96509	32.20935	547.11041	753.13470	
